<svg xmlns="http://www.w3.org/2000/svg" height="78" width="78" viewBox="24 24 102 102">
  <style>
    @media (prefers-color-scheme:dark){path{fill:#fff}}
  </style>
  <path d="m34.67 106.43-5.55-13.55A19.14 19.14 0 0 0 29 57.42l5.47-13.59a33.78 33.78 0 0 1 .2 62.6Zm22.93 17.12-8.68-11.8a45.28 45.28 0 0 0 8.61-8.27L69 112.62a59.82 59.82 0 0 1-11.4 10.93Z"/>
  <path d="M82.23 75.17a60.37 60.37 0 0 0-24.64-48.39l-8.68 11.81a45.63 45.63 0 0 1 18.68 36.58 60.28 60.28 0 0 0 24.48 48.38l8.68-11.8a45.6 45.6 0 0 1-18.52-36.58Zm9.85-28.23-11.47-9.12a60.14 60.14 0 0 1 11.94-11.37l8.56 11.88a45.5 45.5 0 0 0-9.03 8.61ZM115 106.52a34.32 34.32 0 0 1-.29-62.52l6.1 13.32a19.68 19.68 0 0 0 .19 35.83Z"/>
</svg>
